<svg xmlns="http://www.w3.org/2000/svg" xmlns:xlink="http://www.w3.org/1999/xlink" xmlns:lucid="lucid" width="200" height="160"><g transform="translate(-200 -683.9939715373771)" lucid:page-tab-id="MF_jZDBitkmo"><path d="M244 788c-13.25 0-24-10.75-24-24 0-10.6 6.5-19.55 16.58-22.83C236 710 276 704 292 716c8-18 48-12 48 6 24-6 48 18 32 48 16 24 0 54-32 42-8 15.6-40 15.6-48 0-16 12-48 6-48-24z" stroke="#036452" stroke-width="2" fill="#fff"/><use xlink:href="#a" transform="matrix(1,0,0,1,225,708.9939715373771) translate(53.51851851851852 60.333333333333336)"/><defs><path d="M205 0l-28-72H64L36 0H1l101-248h38L239 0h-34zm-38-99l-47-123c-12 45-31 82-46 123h93" id="b"/><path d="M30-248c87 1 191-15 191 75 0 78-77 80-158 76V0H30v-248zm33 125c57 0 124 11 124-50 0-59-68-47-124-48v98" id="c"/><path d="M33 0v-248h34V0H33" id="d"/><g id="a"><use transform="matrix(0.07407407407407408,0,0,0.07407407407407408,0,0)" xlink:href="#b"/><use transform="matrix(0.07407407407407408,0,0,0.07407407407407408,17.77777777777778,0)" xlink:href="#c"/><use transform="matrix(0.07407407407407408,0,0,0.07407407407407408,35.55555555555556,0)" xlink:href="#d"/></g></defs></g></svg>