<svg xmlns="http://www.w3.org/2000/svg" xmlns:xlink="http://www.w3.org/1999/xlink" xmlns:lucid="lucid" width="529" height="280"><g transform="translate(-351.0000546707788 -580)" lucid:page-tab-id="ktPpCrGD8Vdl"><path d="M860 740c0 44.18-35.82 80-80 80s-80-35.82-80-80 35.82-80 80-80 80 35.82 80 80z" stroke="#036452" stroke-width="2" fill="#fff"/><use xlink:href="#a" transform="matrix(1,0,0,1,705,665) translate(21.259259259259252 64.33333333333334)"/><use xlink:href="#b" transform="matrix(1,0,0,1,705,665) translate(6.1851851851851904 96.33333333333334)"/><path d="M371 600h160v40H371z" stroke="#036452" stroke-width="2" fill="#fff"/><use xlink:href="#c" transform="matrix(1,0,0,1,376.0000546707788,605) translate(22.099999999999994 18.6)"/><use xlink:href="#d" transform="matrix(1,0,0,1,376.0000546707788,605) translate(89.95 18.6)"/><path d="M532.8 620.58L683.98 729.2" stroke="#036452" stroke-width="2" fill="none"/><path d="M533.42 619.8l-1.17 1.6-.25-.17v-2.46z" fill="#036452"/><path d="M696.37 738.1l-14.3-4.55 5.42-7.53z" stroke="#036452" stroke-width="2" fill="#036452"/><path d="M371 700h160v40H371z" stroke="#036452" stroke-width="2" fill="#fff"/><use xlink:href="#c" transform="matrix(1,0,0,1,376.0000546707788,705) translate(22.099999999999994 18.6)"/><use xlink:href="#d" transform="matrix(1,0,0,1,376.0000546707788,705) translate(89.95 18.6)"/><path d="M533 720.12l147.63 17.68" stroke="#036452" stroke-width="2" fill="none"/><path d="M533.14 719.13l-.24 1.98-.9-.1v-2z" fill="#036452"/><path d="M695.8 739.62l-14.73 2.9 1.1-9.2z" stroke="#036452" stroke-width="2" fill="#036452"/><path d="M371 800h160v40H371z" stroke="#036452" stroke-width="2" fill="#fff"/><use xlink:href="#e" transform="matrix(1,0,0,1,376.0000546707788,805) translate(33.574999999999996 18.6)"/><use xlink:href="#d" transform="matrix(1,0,0,1,376.0000546707788,805) translate(78.475 18.6)"/><path d="M532.9 819.57L682.3 748" stroke="#036452" stroke-width="2" fill="none"/><path d="M533.36 820.46l-1.36.65v-2.2l.5-.24z" fill="#036452"/><path d="M696.08 741.4l-10.86 10.34-4-8.36z" stroke="#036452" stroke-width="2" fill="#036452"/><defs><path d="M266 0h-40l-56-210L115 0H75L2-248h35L96-30l15-64 43-154h32l59 218 59-218h35" id="f"/><path d="M114-163C36-179 61-72 57 0H25l-1-190h30c1 12-1 29 2 39 6-27 23-49 58-41v29" id="g"/><path d="M141-36C126-15 110 5 73 4 37 3 15-17 15-53c-1-64 63-63 125-63 3-35-9-54-41-54-24 1-41 7-42 31l-33-3c5-37 33-52 76-52 45 0 72 20 72 64v82c-1 20 7 32 28 27v20c-31 9-61-2-59-35zM48-53c0 20 12 33 32 33 41-3 63-29 60-74-43 2-92-5-92 41" id="h"/><path d="M115-194c55 1 70 41 70 98S169 2 115 4C84 4 66-9 55-30l1 105H24l-1-265h31l2 30c10-21 28-34 59-34zm-8 174c40 0 45-34 45-75s-6-73-45-74c-42 0-51 32-51 76 0 43 10 73 51 73" id="i"/><path d="M100-194c63 0 86 42 84 106H49c0 40 14 67 53 68 26 1 43-12 49-29l28 8c-11 28-37 45-77 45C44 4 14-33 15-96c1-61 26-98 85-98zm52 81c6-60-76-77-97-28-3 7-6 17-6 28h103" id="j"/><path d="M85-194c31 0 48 13 60 33l-1-100h32l1 261h-30c-2-10 0-23-3-31C134-8 116 4 85 4 32 4 16-35 15-94c0-66 23-100 70-100zm9 24c-40 0-46 34-46 75 0 40 6 74 45 74 42 0 51-32 51-76 0-42-9-74-50-73" id="k"/><g id="a"><use transform="matrix(0.07407407407407408,0,0,0.07407407407407408,0,0)" xlink:href="#f"/><use transform="matrix(0.07407407407407408,0,0,0.07407407407407408,24.592592592592595,0)" xlink:href="#g"/><use transform="matrix(0.07407407407407408,0,0,0.07407407407407408,33.40740740740741,0)" xlink:href="#h"/><use transform="matrix(0.07407407407407408,0,0,0.07407407407407408,48.22222222222223,0)" xlink:href="#i"/><use transform="matrix(0.07407407407407408,0,0,0.07407407407407408,63.037037037037045,0)" xlink:href="#i"/><use transform="matrix(0.07407407407407408,0,0,0.07407407407407408,77.85185185185186,0)" xlink:href="#j"/><use transform="matrix(0.07407407407407408,0,0,0.07407407407407408,92.66666666666669,0)" xlink:href="#k"/></g><path d="M212-179c-10-28-35-45-73-45-59 0-87 40-87 99 0 60 29 101 89 101 43 0 62-24 78-52l27 14C228-24 195 4 139 4 59 4 22-46 18-125c-6-104 99-153 187-111 19 9 31 26 39 46" id="l"/><path d="M100-194c62-1 85 37 85 99 1 63-27 99-86 99S16-35 15-95c0-66 28-99 85-99zM99-20c44 1 53-31 53-75 0-43-8-75-51-75s-53 32-53 75 10 74 51 75" id="m"/><path d="M210-169c-67 3-38 105-44 169h-31v-121c0-29-5-50-35-48C34-165 62-65 56 0H25l-1-190h30c1 10-1 24 2 32 10-44 99-50 107 0 11-21 27-35 58-36 85-2 47 119 55 194h-31v-121c0-29-5-49-35-48" id="n"/><path d="M117-194c89-4 53 116 60 194h-32v-121c0-31-8-49-39-48C34-167 62-67 57 0H25l-1-190h30c1 10-1 24 2 32 11-22 29-35 61-36" id="o"/><path d="M59-47c-2 24 18 29 38 22v24C64 9 27 4 27-40v-127H5v-23h24l9-43h21v43h35v23H59v120" id="p"/><g id="b"><use transform="matrix(0.07407407407407408,0,0,0.07407407407407408,0,0)" xlink:href="#l"/><use transform="matrix(0.07407407407407408,0,0,0.07407407407407408,19.185185185185187,0)" xlink:href="#m"/><use transform="matrix(0.07407407407407408,0,0,0.07407407407407408,34,0)" xlink:href="#n"/><use transform="matrix(0.07407407407407408,0,0,0.07407407407407408,56.14814814814815,0)" xlink:href="#i"/><use transform="matrix(0.07407407407407408,0,0,0.07407407407407408,70.96296296296296,0)" xlink:href="#m"/><use transform="matrix(0.07407407407407408,0,0,0.07407407407407408,85.77777777777777,0)" xlink:href="#o"/><use transform="matrix(0.07407407407407408,0,0,0.07407407407407408,100.5925925925926,0)" xlink:href="#j"/><use transform="matrix(0.07407407407407408,0,0,0.07407407407407408,115.40740740740739,0)" xlink:href="#o"/><use transform="matrix(0.07407407407407408,0,0,0.07407407407407408,130.2222222222222,0)" xlink:href="#p"/></g><path d="M233-177c-1 41-23 64-60 70L243 0h-38l-65-103H63V0H30v-248c88 3 205-21 203 71zM63-129c60-2 137 13 137-47 0-61-80-42-137-45v92" id="q"/><path d="M177-190C167-65 218 103 67 71c-23-6-38-20-44-43l32-5c15 47 100 32 89-28v-30C133-14 115 1 83 1 29 1 15-40 15-95c0-56 16-97 71-98 29-1 48 16 59 35 1-10 0-23 2-32h30zM94-22c36 0 50-32 50-73 0-42-14-75-50-75-39 0-46 34-46 75s6 73 46 73" id="r"/><path d="M84 4C-5 8 30-112 23-190h32v120c0 31 7 50 39 49 72-2 45-101 50-169h31l1 190h-30c-1-10 1-25-2-33-11 22-28 36-60 37" id="s"/><path d="M24 0v-261h32V0H24" id="t"/><g id="c"><use transform="matrix(0.05,0,0,0.05,0,0)" xlink:href="#q"/><use transform="matrix(0.05,0,0,0.05,12.950000000000001,0)" xlink:href="#j"/><use transform="matrix(0.05,0,0,0.05,22.950000000000003,0)" xlink:href="#r"/><use transform="matrix(0.05,0,0,0.05,32.95,0)" xlink:href="#s"/><use transform="matrix(0.05,0,0,0.05,42.95,0)" xlink:href="#t"/><use transform="matrix(0.05,0,0,0.05,46.900000000000006,0)" xlink:href="#h"/><use transform="matrix(0.05,0,0,0.05,56.900000000000006,0)" xlink:href="#g"/></g><path d="M30-248c87 1 191-15 191 75 0 78-77 80-158 76V0H30v-248zm33 125c57 0 124 11 124-50 0-59-68-47-124-48v98" id="u"/><g id="d"><use transform="matrix(0.05,0,0,0.05,0,0)" xlink:href="#u"/><use transform="matrix(0.05,0,0,0.05,12,0)" xlink:href="#g"/><use transform="matrix(0.05,0,0,0.05,17.95,0)" xlink:href="#m"/><use transform="matrix(0.05,0,0,0.05,27.950000000000003,0)" xlink:href="#i"/></g><path d="M197 0v-115H63V0H30v-248h33v105h134v-105h34V0h-34" id="v"/><path d="M140-251c81 0 123 46 123 126C263-46 219 4 140 4 59 4 17-45 17-125s42-126 123-126zm0 227c63 0 89-41 89-101s-29-99-89-99c-61 0-89 39-89 99S79-25 140-24" id="w"/><g id="e"><use transform="matrix(0.05,0,0,0.05,0,0)" xlink:href="#v"/><use transform="matrix(0.05,0,0,0.05,12.950000000000001,0)" xlink:href="#w"/><use transform="matrix(0.05,0,0,0.05,26.950000000000003,0)" xlink:href="#l"/></g></defs></g></svg>